<svg xmlns="http://www.w3.org/2000/svg" viewBox="0 0 24 24" fill="none">
  <!-- Amazon "a" letterform -->
  <path d="M12 5.5c-2.8 0-5 1.6-5 4.2 0 2.8 2.4 3.8 4.8 3.8.7 0 1.5-.1 2.2-.3v.3c0 1.4-.9 2-2.4 2-1.2 0-2.2-.4-3-.8l-.8 1.8c1.1.6 2.4 1 3.8 1 3 0 4.4-1.6 4.4-4.2V6h-2.2l-.2 1C13.2 6.2 12.2 5.5 12 5.5zm.6 2c.8 0 1.4.5 1.4.5v3.2s-.7.3-1.6.3c-1.4 0-2.4-.7-2.4-2.1 0-1.2.8-1.9 2.6-1.9z" fill="#232F3E"/>
  <!-- Orange smile arrow -->
  <path d="M4.5 17.5c3.5 2.5 9 3.5 14 1" stroke="#FF9900" stroke-width="1.8" stroke-linecap="round" fill="none"/>
  <path d="M16.5 16.5l2 2-2 2" stroke="#FF9900" stroke-width="1.5" stroke-linecap="round" stroke-linejoin="round" fill="none"/>
</svg>
